mtllib materials.mtl
v -0.003333449 -0.0333333 -0.1966667
v 0.07666659 -0.0333333 -0.1966667
v 0.07666661 0.04666662 -0.1966667
v -0.003333434 0.04666662 -0.1966667
v -0.003333308 -0.0333333 0.1933334
v -0.003333293 0.04666662 0.1933334
v 0.07666674 0.04666662 0.1933334
v 0.07666671 -0.0333333 0.1933334
v -0.05333336 -0.03333318 -0.1966667
v 0.02666667 -0.03333318 -0.1966667
v 0.02666668 0.04666674 -0.1966667
v -0.05333335 0.04666674 -0.1966667
v -0.05333335 -0.03333318 -0.1166666
v -0.05333334 0.04666674 -0.1166666
v 0.02666669 0.04666674 -0.1166666
v 0.02666668 -0.03333318 -0.1166666
v -0.06333336 -0.03333318 0.1133333
v 0.01666667 -0.03333318 0.1133333
v 0.01666668 0.04666674 0.1133333
v -0.06333335 0.04666674 0.1133333
v -0.06333335 -0.03333318 0.1933334
v -0.06333333 0.04666674 0.1933334
v 0.0166667 0.04666674 0.1933333
v 0.01666667 -0.03333318 0.1933333
vn -4.917382E-07 -2.703061E-07 -1
vn 3.054738E-07 2.148925E-07 1
vn -7.255339E-09 -1 -1.866964E-09
vn 6.883314E-10 1 1.866993E-09
vn -1 1.282794E-07 3.626907E-07
vn 1 -1.748457E-07 -3.388105E-07
vn 2.048908E-08 1.699655E-08 -1
vn 3.520399E-07 1.920852E-09 1
vn 1.834574E-08 -1 -2.7367E-14
vn 2.408735E-08 1 1.797178E-14
vn -1 1.748456E-07 1.274749E-07
vn 1 -1.515625E-07 -1.376612E-07
vn -3.520399E-07 -1.501758E-08 -1
vn 1.657754E-07 7.741626E-09 1
vn 1.252489E-08 -1 -1.799949E-14
vn 3.863961E-08 1 1.623702E-14
vn -1 1.748456E-07 1.274749E-07
vn 1 -1.981286E-07 -1.012814E-07
vt -0.1480277 0.08407617
vt -0.14445 0.0912316
vt -0.1516054 0.0948093
vt -0.1551831 0.08765388
vt 0.1480277 0.08407616
vt 0.1551831 0.08765387
vt 0.1516054 0.09480929
vt 0.14445 0.09123158
vt -0.05065227 0.02764684
vt -0.01392432 0.01452973
vt -0.01123363 0.02206367
vt -0.04796157 0.03518078
vt 0.05065227 0.02764684
vt 0.04796158 0.03518078
vt 0.01123363 0.02206367
vt 0.01392432 0.01452973
vt -0.05242758 0.1714653
vt -0.05707749 0.1779751
vt -0.08881311 0.1553069
vt -0.08416321 0.148797
vt 0.05242758 0.1714653
vt 0.08416321 0.148797
vt 0.08881311 0.1553069
vt 0.05707748 0.1779752
vt -0.1502638 0.07960402
vt -0.1466861 0.08675944
vt -0.1538415 0.09033715
vt -0.1574192 0.08318172
vt 0.1502638 0.07960403
vt 0.1574192 0.08318174
vt 0.1538415 0.09033716
vt 0.1466861 0.08675945
vt -0.05233394 0.02293814
vt -0.04480001 0.02024745
vt -0.04210931 0.02778139
vt -0.04964325 0.03047208
vt 0.05233394 0.02293814
vt 0.04964326 0.03047208
vt 0.04210932 0.02778139
vt 0.04480001 0.02024745
vt -0.05242764 0.1714653
vt -0.05707754 0.1779752
vt -0.06358741 0.1733253
vt -0.05893751 0.1668154
vt 0.05242764 0.1714653
vt 0.05893751 0.1668154
vt 0.06358741 0.1733252
vt 0.05707755 0.1779751
vt -0.150711 0.07870959
vt -0.1471333 0.08586501
vt -0.1542887 0.08944272
vt -0.1578664 0.0822873
vt 0.150711 0.07870959
vt 0.1578664 0.0822873
vt 0.1542887 0.08944272
vt 0.1471333 0.08586501
vt -0.02347628 0.01156997
vt -0.01594234 0.008879281
vt -0.01325165 0.01641322
vt -0.02078559 0.01910391
vt 0.02347628 0.01156996
vt 0.02078559 0.0191039
vt 0.01325165 0.01641321
vt 0.01594235 0.008879273
vt -0.07765339 0.1534469
vt -0.08230328 0.1599568
vt -0.08881316 0.1553069
vt -0.08416326 0.148797
vt 0.07765337 0.1534469
vt 0.08416324 0.148797
vt 0.08881314 0.1553069
vt 0.08230327 0.1599568
o group1559797559
g mesh1559797559
usemtl mat16
f 4/4/1 3/3/1 2/2/1 1/1/1
f 8/8/2 7/7/2 6/6/2 5/5/2
f 2/12/3 8/11/3 5/10/3 1/9/3
f 6/16/4 7/15/4 3/14/4 4/13/4
f 5/20/5 6/19/5 4/18/5 1/17/5
f 3/24/6 7/23/6 8/22/6 2/21/6
o group1762181637
g mesh1762181637
usemtl mat16
f 12/28/7 11/27/7 10/26/7 9/25/7
f 16/32/8 15/31/8 14/30/8 13/29/8
f 10/36/9 16/35/9 13/34/9 9/33/9
f 14/40/10 15/39/10 11/38/10 12/37/10
f 13/44/11 14/43/11 12/42/11 9/41/11
f 11/48/12 15/47/12 16/46/12 10/45/12
o group1721816145
g mesh1721816145
usemtl mat16
f 20/52/13 19/51/13 18/50/13 17/49/13
f 24/56/14 23/55/14 22/54/14 21/53/14
f 18/60/15 24/59/15 21/58/15 17/57/15
f 22/64/16 23/63/16 19/62/16 20/61/16
f 21/68/17 22/67/17 20/66/17 17/65/17
f 19/72/18 23/71/18 24/70/18 18/69/18
