mtllib materials.mtl
v -0.2201164 -0.09134424 -0.01614183
v -0.2168588 -0.09353936 -0.03575227
v -0.2148862 0.2820206 -0.07979089
v -0.2177206 0.2842646 -0.06012028
v -0.2003837 -0.09106624 -0.01289502
v -0.1979417 0.2837088 -0.05720699
v -0.1951073 0.2814646 -0.07687753
v -0.1971261 -0.09326136 -0.03250545
v 0.07843589 -0.1092567 0.01506034
v 0.07517828 -0.1070617 0.03467077
v 0.07526214 -0.08718455 0.03245986
v 0.07851975 -0.08937955 0.01284939
v -0.2169427 -0.1134166 -0.03354132
v -0.2168588 -0.09353936 -0.03575227
v -0.2201165 -0.09134436 -0.0161418
v -0.2202003 -0.1112216 -0.01393086
v 0.0584651 -0.1072972 0.03192073
v 0.06172271 -0.1094922 0.01231027
v 0.06339967 0.2878902 -0.03189242
v 0.06014206 0.2900848 -0.01228192
v 0.07819784 -0.1070193 0.03516752
v 0.0798748 0.2903628 -0.00903514
v 0.08313241 0.288168 -0.0286456
v 0.08145545 -0.1092143 0.01555708
v 0.08304776 0.2681437 -0.02641734
v 0.07979015 0.2703385 -0.00680688
v 0.07987401 0.290216 -0.009017825
v 0.08313163 0.2880208 -0.02862829
v -0.2150787 0.2619716 -0.07838276
v -0.215142 0.2817547 -0.0813196
v -0.2183923 0.2846422 -0.06179783
v -0.2183289 0.2648594 -0.05886102
vn -0.9883204 -0.01205252 -0.1519131
vn 0.9883205 0.01209232 0.1519088
vn -0.004191039 -0.9938616 0.1105516
vn 0.04368127 0.9932961 -0.1070272
vn -0.1521977 0.1164607 0.9814646
vn 0.1521984 -0.1164615 -0.9814644
vn 0.9866369 0.01389431 0.1623408
vn -0.9866369 -0.01389455 -0.1623408
vn -0.004192905 -0.9938621 0.1105467
vn 0.004192756 0.9938621 -0.1105467
vn 0.162881 -0.1097506 -0.9805226
vn -0.162881 0.1097506 0.9805226
vn -0.986637 -0.01389429 -0.1623408
vn 0.9866369 0.01389431 0.1623409
vn -0.004193296 -0.9938621 0.1105469
vn 0.004192411 0.9938627 -0.1105416
vn -0.1628796 0.1097554 0.9805223
vn 0.1628803 -0.1097554 -0.9805223
vn 0.9866369 0.01389416 0.162341
vn -0.9867016 -0.02695642 -0.1602914
vn -0.003006134 -0.9917289 0.1283149
vn 0.003001952 0.99173 -0.1283066
vn 0.1740095 -0.1268416 -0.9765408
vn -0.1740096 0.1268418 0.9765407
vt -0.1527476 0.07892041
vt -0.1512072 0.08019587
vt -0.1751472 0.1094664
vt -0.1766904 0.1081943
vt 0.1527682 0.07890323
vt 0.1766286 0.1081425
vt 0.1750855 0.1094146
vt 0.1512278 0.08017874
vt 0.05093236 -0.04960705
vt 0.05181199 -0.04781087
vt 0.05001581 -0.04693124
vt 0.04913618 -0.04872742
vt -0.04742453 -0.05705053
vt -0.04561679 -0.05619491
vt -0.0464724 -0.05438716
vt -0.04828014 -0.05524278
vt 0.1480465 0.05913839
vt 0.1807662 0.07810264
vt 0.1796978 0.07979326
vt 0.1470457 0.06086982
vt -0.1480471 0.05916376
vt -0.1470462 0.06089519
vt -0.179716 0.07977939
vt -0.1807843 0.07808878
vt 0.1510182 0.07678537
vt 0.152544 0.07549224
vt 0.1538371 0.07701795
vt 0.1523114 0.07831109
vt -0.1510182 0.07678534
vt -0.1523114 0.07831106
vt -0.1538371 0.07701793
vt -0.1525439 0.07549221
vt 0.06230248 -0.02184075
vt 0.04913522 -0.04872761
vt 0.05093139 -0.04960724
vt 0.06409865 -0.02272039
vt -0.06230249 -0.02184073
vt -0.06409866 -0.02272037
vt -0.0509314 -0.04960722
vt -0.04913523 -0.04872758
vt -0.1313671 0.08489899
vt -0.1330988 0.0858996
vt -0.1480767 0.05997779
vt -0.146345 0.05897719
vt 0.1313671 0.08489899
vt 0.146345 0.05897719
vt 0.1480767 0.05997779
vt 0.1330988 0.0858996
vt -0.1525439 0.07549225
vt -0.1510182 0.07678538
vt -0.1768701 0.1072874
vt -0.1783958 0.1059943
vt 0.1525439 0.07549223
vt 0.1783958 0.1059943
vt 0.1768701 0.1072874
vt 0.1510182 0.07678536
vt 0.06335364 -0.02424178
vt 0.06423326 -0.0224456
vt 0.06243709 -0.02156597
vt 0.06155745 -0.02336214
vt -0.06335244 -0.02424138
vt -0.06155626 -0.02336174
vt -0.0624359 -0.02156557
vt -0.06423207 -0.02244521
vt 0.1322142 0.08343223
vt 0.1668341 0.1034361
vt 0.1658335 0.1051678
vt 0.1312136 0.08516393
vt -0.1322142 0.0834323
vt -0.1312135 0.085164
vt -0.1658334 0.1051679
vt -0.166834 0.1034362
vt 0.1755674 0.1057504
vt 0.1770931 0.1044572
vt 0.1783863 0.1059829
vt 0.1768606 0.1072761
vt -0.1765394 0.1041284
vt -0.1777955 0.1056848
vt -0.1793518 0.1044287
vt -0.1780958 0.1028724
vt 0.06602221 -0.021741
vt 0.05268022 -0.04891027
vt 0.05448429 -0.04977293
vt 0.06782603 -0.02260414
vt -0.06605582 -0.0217477
vt -0.06785963 -0.02261085
vt -0.05444339 -0.04977331
vt -0.05263934 -0.04891064
vt -0.1617702 0.105668
vt -0.1634927 0.1066838
vt -0.1787406 0.08050507
vt -0.1770045 0.07951278
vt 0.1617287 0.10567
vt 0.177023 0.07955045
vt 0.1787591 0.08054273
vt 0.1634512 0.1066858
o group203701551
g mesh203701551
usemtl mat17
f 4/4/1 3/3/1 2/2/1 1/1/1
f 8/8/2 7/7/2 6/6/2 5/5/2
f 2/12/3 8/11/3 5/10/3 1/9/3
f 6/16/4 7/15/4 3/14/4 4/13/4
f 5/20/5 6/19/5 4/18/5 1/17/5
f 3/24/6 7/23/6 8/22/6 2/21/6
o group389468
g mesh389468
usemtl mat17
f 12/28/7 11/27/7 10/26/7 9/25/7
f 16/32/8 15/31/8 14/30/8 13/29/8
f 10/36/9 16/35/9 13/34/9 9/33/9
f 14/40/10 15/39/10 11/38/10 12/37/10
f 13/44/11 14/43/11 12/42/11 9/41/11
f 11/48/12 15/47/12 16/46/12 10/45/12
o group1287030991
g mesh1287030991
usemtl mat17
f 20/52/13 19/51/13 18/50/13 17/49/13
f 24/56/14 23/55/14 22/54/14 21/53/14
f 18/60/15 24/59/15 21/58/15 17/57/15
f 22/64/16 23/63/16 19/62/16 20/61/16
f 21/68/17 22/67/17 20/66/17 17/65/17
f 19/72/18 23/71/18 24/70/18 18/69/18
o group332215385
g mesh332215385
usemtl mat17
f 28/76/19 27/75/19 26/74/19 25/73/19
f 32/80/20 31/79/20 30/78/20 29/77/20
f 26/84/21 32/83/21 29/82/21 25/81/21
f 30/88/22 31/87/22 27/86/22 28/85/22
f 29/92/23 30/91/23 28/90/23 25/89/23
f 27/96/24 31/95/24 32/94/24 26/93/24
