<svg id="Layer_1" data-name="Layer 1" xmlns="http://www.w3.org/2000/svg" viewBox="0 0 59.04 59.04">
  <defs>
    <style>
      .cls-1 {
        fill: #fff;
      }

      .cls-2 {
        fill: #ff9985;
      }
    </style>
  </defs>
  <title>Artboard 5</title>
  <g>
    <circle class="cls-1" cx="29.52" cy="29.52" r="29.52"/>
    <g>
      <path class="cls-2" d="M27.37,2h4.8a9.69,9.69,0,0,0,1,.23A27.8,27.8,0,0,1,57.14,23.51c.26,1.16.47,2.33.71,3.49v5a5.25,5.25,0,0,0-.22.67c-1.83,11.82-8.58,19.43-19.86,23.1A52.54,52.54,0,0,1,32.17,57h-4.8a9.69,9.69,0,0,0-1-.23A27.77,27.77,0,0,1,2.4,35.53c-.28-1.23-.48-2.48-.71-3.73V27a4.2,4.2,0,0,0,.21-.66C3.51,15.47,9.51,8,19.63,4A56.89,56.89,0,0,1,27.37,2Zm-10.7,8.71v1.56c0,5.76,0,11.52,0,17.28,0,1.84,0,3.68.13,5.51.23,3.45,2.23,5.3,5.67,5.37h1.08c2.44-.1,3.78-1.13,4.31-3.54A20.64,20.64,0,0,0,28.29,33c.07-3.16-.07-6.32.1-9.47a13,13,0,0,1,1.11-4.1,1.87,1.87,0,0,1,1.56-.76c.34,0,.72.81.88,1.32a5.39,5.39,0,0,1,.13,1.66V42.07a35.51,35.51,0,0,0-3.57.25,4.39,4.39,0,0,0,.75,8.7c4.46.11,7-2.38,7.09-6.83,0-.61-.05-1.11.79-1.34a6.73,6.73,0,0,0,5-5.81,47.3,47.3,0,0,0,.16-6.95c0-.21-.25-.42-.38-.62-.15.22-.42.44-.43.67-.05,1.16.06,2.33-.05,3.48a21.41,21.41,0,0,1-.69,4.69,5.68,5.68,0,0,1-4.43,3.84V40.61c0-6.32,0-12.64,0-18.95,0-2.52-1-3.67-3.1-4-2.76-.42-4.62.54-5.28,2.94a16.92,16.92,0,0,0-.55,4.14c-.09,3.11.05,6.24-.08,9.35a11.84,11.84,0,0,1-.9,3.92,2.76,2.76,0,0,1-3.24,1.47c-1.25-.19-1.7-1.14-1.92-2.18a14.39,14.39,0,0,1-.32-2.85c0-5,0-10,0-15,0-.27,0-.54.09-.91,1.17,0,2.28,0,3.4,0,.74,0,.74,0,.67-1h-4.2V9.88Zm19.46-.66a2.34,2.34,0,0,0-4.68-.1,2.34,2.34,0,1,0,4.68.1Z"/>
      <path class="cls-2" d="M32.64,43a48.28,48.28,0,0,1-.44,4.89c-.34,1.86-1.72,2.51-3.52,1.87a3.49,3.49,0,0,1-2.26-3.69A3.42,3.42,0,0,1,29.6,43C30.51,43,31.43,43,32.64,43Z"/>
    </g>
  </g>
</svg>
