<svg id="Layer_1" data-name="Layer 1" xmlns="http://www.w3.org/2000/svg" viewBox="0 0 54.42 54.42">
  <defs>
    <style>
      .cls-1 {
        fill: #f2b632;
        stroke: #fff;
        stroke-miterlimit: 10;
      }

      .cls-2 {
        fill: #fff;
      }
    </style>
  </defs>
  <title>Artboard 2</title>
  <g>
    <circle class="cls-1" cx="27.21" cy="27.21" r="26.71"/>
    <g>
      <path class="cls-2" d="M15.31,9.5l4.21-.86v7.67h4.2c.07,1,.07,1-.67,1-1.12,0-2.23,0-3.39,0a7.16,7.16,0,0,0-.1.91c0,5,0,10,0,15a13.67,13.67,0,0,0,.31,2.85c.22,1,.67,2,1.92,2.18a2.76,2.76,0,0,0,3.24-1.47,11.84,11.84,0,0,0,.9-3.92c.13-3.11,0-6.24.08-9.35a16.92,16.92,0,0,1,.55-4.14c.66-2.4,2.52-3.36,5.28-2.94,2.11.32,3.08,1.47,3.1,4,0,6.32,0,12.64,0,19v1.54a5.68,5.68,0,0,0,4.43-3.84,20.83,20.83,0,0,0,.7-4.69c.1-1.15,0-2.32,0-3.48,0-.23.28-.45.43-.67.13.2.38.41.38.62a47.16,47.16,0,0,1-.16,6.94,6.73,6.73,0,0,1-5,5.82c-.84.23-.78.73-.79,1.34,0,4.45-2.63,6.94-7.09,6.83a4.36,4.36,0,0,1-4.25-4.08,4.31,4.31,0,0,1,3.5-4.62,35.51,35.51,0,0,1,3.57-.25V39.49q0-9.54,0-19.08a5.69,5.69,0,0,0-.12-1.66c-.17-.51-.55-1.29-.89-1.32a1.87,1.87,0,0,0-1.56.76A13,13,0,0,0,27,22.28c-.17,3.16,0,6.32-.1,9.48a20.64,20.64,0,0,1-.43,3.92c-.53,2.41-1.87,3.44-4.31,3.54H21.11c-3.44-.07-5.44-1.92-5.67-5.37-.13-1.83-.12-3.67-.12-5.51,0-5.76,0-11.52,0-17.28Zm15.5,32.39c-1.21,0-2.13-.06-3,0A3.4,3.4,0,0,0,24.6,45a3.47,3.47,0,0,0,2.25,3.69c1.8.64,3.18,0,3.53-1.87C30.66,45.23,30.67,43.63,30.81,41.89Z"/>
      <path class="cls-2" d="M34.2,9.13A2.35,2.35,0,1,1,29.51,9a2.35,2.35,0,0,1,4.69.1Z"/>
    </g>
  </g>
</svg>
